<svg id="Layer_1" data-name="Layer 1" xmlns="http://www.w3.org/2000/svg" viewBox="0 0 841.89 595.28"><defs><style>.cls-1{fill:#a6dbda;}.cls-2{fill:#83d0d4;}.cls-3{fill:#61c6c3;}.cls-4{fill:#00b1a9;}.cls-5{fill:#6d6e71;}</style></defs><title>final onw logo</title><path class="cls-1" d="M261.47,138.38l-6.25,6.16-3.76,3.67c-17-16.48-37.33-25.3-61.12-25.3s-44.08,8.83-61.19,25.33c-1.51-1.51-3-3-4.53-4.51-1.8-1.79-3.62-3.57-5.43-5.35v-.18l1.07-.93c3.39-2.91,6.64-6,10.19-8.7A96.38,96.38,0,0,1,155,115.08a100.22,100.22,0,0,1,23.29-5.68,104.26,104.26,0,0,1,18.36-.52,99.81,99.81,0,0,1,58,23.22c2.32,2,4.54,4.06,6.8,6.1Z"/><path class="cls-2" d="M241.4,158.28l-10,10c-11.48-11.1-25.13-17.06-41.15-17.05s-29.62,5.94-41,17l-9.9-9.89C163.15,132.72,210.39,127.24,241.4,158.28Z"/><path class="cls-3" d="M169.26,188.27l-9.95-10C176,161,204.68,161,221.36,178.3l-10,9.93a29.67,29.67,0,0,0-42.1,0Z"/><path class="cls-4" d="M216.48,218.21c-.19,14.82-11.86,26.37-26.55,26.07a25.83,25.83,0,0,1-25.59-26.43c.1-14.6,12.11-25.9,26.77-25.7A26.11,26.11,0,0,1,216.48,218.21Z"/><path class="cls-5" d="M240.38,181a63.07,63.07,0,1,1-100.66.71l-14.8-14.8a83.86,83.86,0,1,0,130.26-.71Z"/><path class="cls-4" d="M367.68,234.74V165.26h25.23v128l-75.46-71.89v69.48H292.3V162.93Z"/><path class="cls-4" d="M433.58,165.57V265.72h50.3v25H408.42V165.57Z"/><path class="cls-4" d="M494.74,165.57H519.9V290.71H494.74Z"/><path class="cls-4" d="M610.8,234.74V165.26H636v128l-75.46-71.89v69.48H535.42V162.93Z"/><path class="cls-4" d="M727,165.26v25.07H676.7v25.24h37.73v25.07H676.7v25.23H727v25H651.54V165.26Z"/><path class="cls-5" d="M167.55,400.43h-3.21l-55.55-80.64-.35.12v80.52h-3.27V313.85h3.27L164,394.31l.36-.12V313.85h3.21Z"/><path class="cls-5" d="M236.18,356.9H194.55v40.32h47.69v3.21h-50.9V313.85h50.9v3.21H194.55v36.63h41.63Z"/><path class="cls-5" d="M282.86,353.75l28-39.9h4l-29.91,42.4,31.16,44.18h-4l-29.26-41.68-29.2,41.68h-3.92l31.16-44.18-30-42.4H255Z"/><path class="cls-5" d="M388.71,317.06H358.38v83.37h-3.21V317.06H322.7v-3.21h66Z"/><path class="cls-5" d="M446.4,380.21l3.75,14h.35l3.75-14,20.46-66.36h3.56l20.34,66.36,3.69,14h.36l3.86-14,17.84-66.36h3.51l-23.31,86.58h-3.63l-21.47-72.19-2.85-8.63h-.36l-2.73,8.63-21.65,72.19h-3.63l-23.37-86.58h3.57Z"/><path class="cls-5" d="M588.29,356.9H546.66v40.32h47.7v3.21H543.45V313.85h50.91v3.21h-47.7v36.63h41.63Z"/><path class="cls-5" d="M655.43,356.9H613.8v40.32h47.7v3.21H610.59V313.85H661.5v3.21H613.8v36.63h41.63Z"/><path class="cls-5" d="M691.83,357.56H680.94v42.87h-3.21V313.85h3.21V354.4h11.78l35.56-40.55h3.81l.11.29-36.81,42.29,41.33,43.64-.17.36H732.8Z"/><path class="cls-4" d="M165.9,485.73c-.64.28-.11.71-.15.85C166.71,485.91,165.8,485.6,165.9,485.73Z"/><polygon class="cls-4" points="175.44 479.05 175.38 479.37 176.6 478.01 175.44 479.05"/><path class="cls-4" d="M185.11,474.14c-1.39-.51-3.51,1.78-5.36,2.4l-.39-.07-.38,1.18c1-.6,2.11-1.43,3.19-2.08A13.4,13.4,0,0,1,185.11,474.14Z"/><path class="cls-4" d="M191.33,473.78c-.5-.22,1-.85-1.27.45h.27A10.59,10.59,0,0,1,191.33,473.78Z"/><path class="cls-4" d="M190.33,474.23c-1,.51.82,0,0,0Z"/><path class="cls-4" d="M195,471.78l-1.19,1c.38.09,1.61-.42,1.24-.05C196.32,471.87,195.93,471.78,195,471.78Z"/><path class="cls-4" d="M195.94,470.47l-.64.47C195.46,471,195.67,470.92,195.94,470.47Z"/><path class="cls-4" d="M194,471.94l1.35-1c-.27-.07-.44-.37-.64.43C194.65,471,194.49,471.44,194,471.94Z"/><path class="cls-4" d="M193,472.19c-.86.14-1.9.47-.69-.5C189.8,473,190.5,473.54,193,472.19Z"/><path class="cls-4" d="M185.13,472.91l-1.16.2-.73.74C183.6,473.48,185.34,473.18,185.13,472.91Z"/><path class="cls-4" d="M203.71,468.48c0-.24-.71-.36-.93-.59l-.91.67C202.45,468.48,203.51,468.2,203.71,468.48Z"/><path class="cls-4" d="M202.78,467.89l1.38-1C202.77,467.42,202.6,467.7,202.78,467.89Z"/><polygon class="cls-4" points="195.69 469.27 193.56 471.18 196.16 469.04 195.69 469.27"/><polygon class="cls-4" points="209.55 466.09 208.89 466.93 210.13 465.56 209.55 466.09"/><path class="cls-4" d="M213.39,464.39c-.48.67,1.15.32.58.85a10,10,0,0,0,2.46-1.87A6.64,6.64,0,0,1,213.39,464.39Z"/><path class="cls-4" d="M217.6,462.35a10.38,10.38,0,0,0-1.17,1A6.21,6.21,0,0,0,217.6,462.35Z"/><path class="cls-4" d="M206.81,465.92a1.9,1.9,0,0,0,1.46.1l-.85-.34Z"/><path class="cls-4" d="M207.39,465.67h0l1.32-.51Z"/><path class="cls-4" d="M206.66,466l.15-.06C206.73,465.88,206.69,465.88,206.66,466Z"/><path class="cls-4" d="M199.88,468c.75-.7,2.48-1.84.44-1.58C199.85,467.06,201,466.91,199.88,468Z"/><path class="cls-4" d="M205.6,465.55l-1.69.54c.1.15.49.25.12.6Z"/><polygon class="cls-4" points="206.32 465.03 205.6 465.55 206.22 465.35 206.32 465.03"/><path class="cls-4" d="M214.6,462.94a8.57,8.57,0,0,1,2.21-1.29,25,25,0,0,0-2.88,1C213.88,462.88,213.61,463.38,214.6,462.94Z"/><path class="cls-4" d="M211.08,464.21l.14-.09C211.1,464.11,211,464.12,211.08,464.21Z"/><path class="cls-4" d="M225.49,458.42l-.18-.05v.11Z"/><path class="cls-4" d="M213.73,462.59a2.68,2.68,0,0,0-1.43.84c.5-.27,1-.54,1.63-.79C214,462.53,214,462.47,213.73,462.59Z"/><path class="cls-4" d="M219.91,461.16c-.42,0-.88.06-1.36.12C219,461.34,219.84,461.36,219.91,461.16Z"/><path class="cls-4" d="M211.52,464.18l-.09.07C211.71,464.28,211.66,464.23,211.52,464.18Z"/><path class="cls-4" d="M211.52,464.18a4.67,4.67,0,0,0,.78-.75,10.15,10.15,0,0,0-1.08.69A.94.94,0,0,1,211.52,464.18Z"/><path class="cls-4" d="M226.72,453.59c.08.6-1.62,1.81-3.46,1.81-1.45,1,.29,2.45,2.05,3,0-.27-.12-.49,1.4-1.42-.69-.1-3.91.62-2.71-.39,2.07-1.08,1.86-.46,3-.55-1.15-.36,2.4-2,1.56-2.88l-1.78,1.06C226.7,454.05,227.3,453.54,226.72,453.59Z"/><path class="cls-4" d="M222.18,459.45l-.65.32a8.26,8.26,0,0,1,2.61-.1c1-.68,1.17-1,1.18-1.19L222,459.62Z"/><path class="cls-4" d="M218.51,460.88c.29-.79,1.81-1.65.57-1.93-2,.78-1.21,1-2.27,1.73,3.12-1.37-.79.66,1.65.14-.59.32-1.14.58-1.65.83a11.28,11.28,0,0,1,1.74-.37h-.1c-.17,0-.23-.06-.06-.07l.06,0a.59.59,0,0,1,.06-.28c1-.21.2.11-.06.28a.4.4,0,0,0,0,.11h0l3.07-1.5A19.54,19.54,0,0,0,218.51,460.88Z"/><path class="cls-4" d="M201.45,464.41c.12,0,.14.06.16.1C201.79,464.35,201.84,464.27,201.45,464.41Z"/><path class="cls-4" d="M202.91,464.23a1.9,1.9,0,0,1-1.06.74c-.72.1-.12-.28-.24-.46-.38.34-1.39,1.08.15.78l.19-.17c1.36-.33,3.3-.26,3.11-.09A4.81,4.81,0,0,0,202.91,464.23Z"/><path class="cls-4" d="M210.75,462.34l2.51-1.38-1.55,0,.19.29C210.36,461.77,210.84,462,210.75,462.34Z"/><polygon class="cls-4" points="225.91 458.61 225.79 459.38 227 457.92 225.91 458.61"/><polygon class="cls-4" points="229.34 457.27 229.41 457.87 230.2 457.2 229.34 457.27"/><path class="cls-4" d="M432.66,411.29l.83-.22A5.09,5.09,0,0,0,432.66,411.29Z"/><path class="cls-4" d="M426.58,411.63l-.13.31C426.72,411.75,426.83,411.63,426.58,411.63Z"/><path class="cls-4" d="M316.49,433.33c1.3.31,2.8.9,2.53.28l-.5-.57A5.32,5.32,0,0,1,316.49,433.33Z"/><path class="cls-4" d="M377.31,419.78l-.38-.15-.74.71Z"/><path class="cls-4" d="M377.85,417l1.65.23A7.61,7.61,0,0,0,377.85,417Z"/><path class="cls-4" d="M465.84,409l1-.68C465.27,408.34,466,408.66,465.84,409Z"/><path class="cls-4" d="M265.15,445.5a13.08,13.08,0,0,0,2.62-.34C266.45,445.15,265.32,444.89,265.15,445.5Z"/><path class="cls-4" d="M430.72,418.33c.5-.15.71-.3.69-.44C430.89,418,430.6,418.17,430.72,418.33Z"/><path class="cls-4" d="M270.67,444.33a5.42,5.42,0,0,0-.57,0,12.64,12.64,0,0,1-2.33.83A4.33,4.33,0,0,0,270.67,444.33Z"/><path class="cls-4" d="M586.37,411.56a2,2,0,0,1,.26.09C586.66,411.57,586.54,411.55,586.37,411.56Z"/><path class="cls-4" d="M620.72,421c-.35,0-.9-.05-1.43-.1A5.6,5.6,0,0,0,620.72,421Z"/><path class="cls-4" d="M243.42,452.7c-.73.29-.1.11,0,0Z"/><path class="cls-4" d="M239,451.44a.43.43,0,0,0,.2-.4A.54.54,0,0,1,239,451.44Z"/><path class="cls-4" d="M277.17,438.4h.06C277,438.32,277,438.34,277.17,438.4Z"/><path class="cls-4" d="M242.21,452.79a8.48,8.48,0,0,0,1-.13A7.4,7.4,0,0,0,242.21,452.79Z"/><path class="cls-4" d="M242.45,453l-.67.15C241.72,453.31,241.83,453.35,242.45,453Z"/><path class="cls-4" d="M244.44,452.34a10.52,10.52,0,0,1-1.22.32c.16,0,.23,0,.2,0Z"/><path class="cls-4" d="M521.8,410.74l.17.07C522.77,410.55,522.42,410.59,521.8,410.74Z"/><path class="cls-4" d="M335.37,423l-.08,0h.12Z"/><path class="cls-4" d="M338.09,422a3.1,3.1,0,0,1-2.68,1l1.24,1.7Z"/><path class="cls-4" d="M447.2,410.26l-2-.49c2.35-1.09,4.1-.81,2.19-1.56-.18,2-7.72.66-7.88,2.69l-1.34-.35c.38,0,.43-.12.81-.12-2.61-.83-1.81,1.58-5.11,1.49-1.15-.09-2-.34-1.2-.63l-2.52.66c-.74,0-.58-.36.16-.37-1.29.14-2.58.25-3.87.42l0-.06a17.9,17.9,0,0,1-2.35,1.2c-1-.21.48-.25.21-.48l-2.11.66c-.91-.46.83-1.11,2.32-1.15-2.16-1.88-1.75.65-6.17-.2l2-.42c-1.39-1.05-2.95-.51-5.3-1.05.58.33,4.74,1.46,2.44,2.14a4.91,4.91,0,0,0-2.76.4c-.07-.72-1.29-.45-2.82-.29l0-1c-1.64.4-1.46.88-2.4,1.38a2.79,2.79,0,0,1-2.8-1.21c-3,.13,2.15,1-1.34,1.51-2.5-.13-4.2.43-7.09,1.28-1.75-.16.25-.61-.4-.82l-1.45.91c-.38,0-.28-.23-.23-.35-1.26.42,0,1-2,1.41-.43,1.12-4.31-1.17-6.68.35-.65-.2.23-.62,0-1a28.53,28.53,0,0,0-5.57,2.3l-2.47-.34c1.85.5-.3,1.62-2.19,2.54.67.27,1.24.51,1.61.62l-3.07.88c-.4-.12-.12-.48.34-.94l-.55.3c-1.16-.22-.65-.84.09-1.47.41.14.81.3,1.2.46.71-.67,1.36-1.4,1.13-1.94a3.07,3.07,0,0,1-1,.38c.19-.18.3-.34.19-.42s-.42.16-.9.47l-.85-1-.12.44-4.2-.18c-2.81,1.44-5.15,3.39-9.74,4.47,1.05-.94.07-1.3,0-2.23,1.4.8,3.55-.92,6-1.06-1.27.07-1.05-.4-.75-.6l-4.19,1.49c0-.77-1-.44-2.16-.59,1.05,1.37-3.08,1.44-4.76,2.14-.19-.49.16-1,2.32-1.23-2.53-.79-2.8,2.17-5.25,1.54.52-.08.81-.05,1-.33-1.15.6-4.18.7-3.55.16l.52-.09c-3.48.39-10.53,1.71-10.83,3.06a6.11,6.11,0,0,1,.37-1.88l-5.44,5.24c.36-1.17-2.17-3.4.59-4.48a8,8,0,0,0-3.57.64c.59.06,1.67,1.33.92,1.55-2.31-.86-1.57-.39-4.34-.93.88.07.25,1.94-1.08,2.14.16-.29-.41-1.65,0-1.92l-3,2.29c.77-.46-.11-1.43-.94-1.76.4.26-2.86.51-3.7.84l1.47.12c-3.77.46-3.22,3-6.92,3.64.38-.42.68-2.31-1.24-2.16-.7,1-3,4.86-6,6.22l-.72-.35-2.36,1.09a50.56,50.56,0,0,1,7.2-6.8c-1.46-.08-.5-.48-2.57,0-.83-.29,1-.93,1.6-1.09l-4.91.77c.43.94-3.48,1.8-3.12,2.58l5-2.18c.42.94-2.44,3.47-5.88,4-1-.2.26-1.89.12-2.2a7.89,7.89,0,0,1-3.48,1.18l1.34-.84c-2,.05-2.82,2-5.32,1.55-.8.11-2.66-.75-2.65-.12,1.54.81,2.6,4.24,1.95,5.26a35.87,35.87,0,0,1-5.38-.38c-1.5-.55,1.43-2.57.15-3.05,0,.28-.62.79-.89,1-.88,0,.14-.91-1.62-.34-.05,1.06-3.66.83-.64,1.05-1.68.72-1.91.26-3.95.82.81.48-1.29,2.64-3,3.36,0-.28-.44-.51-.67-.61-1.8.41-3.21.61-4.59.84s-2.7.52-4.35,1c-.38-.16-2.05,0-1.49-.61a4.8,4.8,0,0,1-1.79,1.09c-2.22-.29,2.24-.78.45-1.38,0,.61-2.43,1.55-3.78,2.32.7.76,3.41-.79,4.77-1.56.34,1.21-1.83,3.21-5.11,4.76-2.65,1.08-1.42-.45-1.84-.14-5.21,1.27-3.76,3.33-8.24,3.84-1.91-.23-.55-1.51-1.1-1.94,2.13-1,3.54-.65,5.05-1.1-.66.06-1.32.11-2,.2a6.2,6.2,0,0,1,2.94-1.12c-1.66-.38-8.67,2.61-12.83,3.23-.61.48-1.73,1.14-1.06,1.26l1.21-.51c1.34.25-2.06,1.62-.39,1.39a14.36,14.36,0,0,1-5.62,2.68l-.74-.73c.14.24,1.71,0,2.28-.46-.84.72-4,0-4.67,1.52.61,0,1.22,0,1.84,0-1.52,1-3.21,2.7-5.36,3.16,1.24.52.44-.27,2.24.2-1.69-.79,5.25-1.86,2.77-2.43,1.91.66,2.79-.36,5.09,0-.15-.27-.88-.33.9-.75a1.73,1.73,0,0,1,.3-.38h0c.06-.06.06-.08,0,0a2.12,2.12,0,0,1-1-.15c.64-.94,3.42-1.82,4.24-2.46,1.08-.2-.32.47.34.59l1.24-1c.34.59,3.08.17.77,1.34l2.19-.68a9.87,9.87,0,0,0,4.23-1.12c1.06-.21,2.4-1.49,1.65-.73l3.34-1.4.08.16c3.45-.9,6.75-3.09,11-3a15.64,15.64,0,0,1,4.23-1.39l.53.47c1.44-.57,4.62-.56,5.11-1.31,2,1.12,7.32-1.48,10-1.87l-.08-.77a52.8,52.8,0,0,0,5.7-1.84l-.3-.63c1.83-1,5.13-.63,8.2-1.38-.16.3-1,.41-1.54.38,4,.68,7.54-2.8,11.12-2.43a3.51,3.51,0,0,1,2-.38.6.6,0,0,0-.2.08l.35-.06c.39,0,.8.1,1.23.13a4.85,4.85,0,0,0-1.05-.17,21.14,21.14,0,0,0,2.54-.75l.54.63.22-.07c1,.09.7-.48.09-.91a6.82,6.82,0,0,0,1.19-.67c1,1,2.45-.87,3.72.15.54-.72,4.75-1.37,5-2.72.06.16.36.18-.16.29a6.6,6.6,0,0,0,3.09-.66l.62.83,2.14-1.61c1.53.32,2.17.55.88,1.47,3.24-1.63,2.7-.86,5.44-2.4l0,.61c1-.19,2.58-1.25,3.28-.87,1.26.37,4.15-.07,7.49-.58a68.45,68.45,0,0,1,10.24-.86c-1.4-1.57,2.9.39,2.95-1,.41.36,1.27.48.35,1,3-.82,4.68,0,6.65-1.41.41.37-.58.68-.23.89.23-.12.92-.47,1.28-.26s-.41.39-.87.63c3.12-.44,3.28-1.74,3.36-2.95,1.67.37,2.45.2,3.51-.72.6.33,1.57.63-.37,1,1.11-.07,6.77-.21,6.78-1.18a3.29,3.29,0,0,0,1.82-.25c2.47-.23,2.69-.19,5.11-.51l-.69-.09c.84-1.24,2-.45,3.93-.78l0,.13c4.56.39,1.89-.59,6.41-.07l-.31-.69c.27-1.58,4,.53,6.52-.31l-1-.32c1.36-.68,4.11,1.74,5.53,1.83.32.11-.47.26-.89.39,3.76.62.4-1,3.13-1.41.55.47-.54,1.34,1.31,1.29,1,.34,5.24-2.06,7.83-1.28-.58-.35-1.16-.7.09-1.09,1.95-.3,5.4,1.07,7.08-.25.26.1.36.19.38.29,1.48-.41,4.83-.82,5.7-1.54,1.52,2.4,9.25-1.76,9.34.53l4.61-.32-.11.24c2.95,0,4-.57,5-1.16.69.12.2.36.15.48,4.33.28,4.75.16,8.33-1.13l.4.73c1-.46,6.27,1,10.47,0,0,.09-.12.24-.46.35,2.37-.5,5.23-.07,7.7.17s4.57.28,5.42-1.08l3.14-.71c-4.07-.16.59-1.18-1.09-1.61,1.6-.18,4.15.77,2.18.93l-.31-.13c-.7,1.42,5.06.44,5,1.4,4-.08,7.95.14,11.83.32s7.7.42,11.44.52l-.85-1.11,2.62.1c.68.27.9.87-1,.8,1,.64,3.13-.47,3.19-.71,3.64.49-1.44,1.26-.32,1.3l1.52-.06-.35-.13c1.24-.43,1.36-.91,3.6-.82,1.41.24.71.68,1.27.73,0,.08.18.12.86.05l3.28.18-1.29-.9c1.47-.38,3.09.13,1.6-.89,2.19,1.58,12.26.85,13.62,1.41a19.36,19.36,0,0,1,6.57-.3c-.61-.2-1-1.19,1.21-1-.87,2,3.91,1,5.58,2.56-1.51-1,6.13.07,3.76-1.41,1.79.25.07.75,1.41,1.29,4.32-.59,9.39,1,14.68,1.06.1-.26-.76-.71.4-1l2.7,1.5c1-.06,1.06-1.46,2.9-.41-.25-.24-.63-.6.07-.64,10.24,2,21.23.52,31.46,4-1.36-.65-.41-.61.67-.52-.69-.19.08-.64,0-1l4.27,1.44c.91-.9,4.69.45,5.25-.43h-1.4c2-.9-2.3-2.76-1.87-4.15-2.21,1-5.29-2.47-8.88-1-.73-.36.68-.4.31-.77-.92.53-2,.56-3.88.1l.23-.13c-5.45-.34-7.73-1.17-13.81-2l.39.74a6.93,6.93,0,0,1-2.16-.67c-1.59,1,3.68.35,2.21,1.43-1.62-1.59-9.25-.73-10.32-2.44-2-.14.54.87-1.48.72l-.51-.48-.55.53c-1.32-.18-2-.78-2-1.16a7.88,7.88,0,0,0,1.27-.05c-1.69-.65-4.87-.15-5.45-.35l1.93.39c-5.55.09-12.26-.91-17.65-.24l.39.36c-4.1.42-3.25-.54-7.73-.45l.16-.07a9,9,0,0,1-3.33.33c1.14-.35-2.1-.84-.6-1.22-4.45.5-2.21.44-5.17,1.58l-.66-.58a5.66,5.66,0,0,1-3.34.78c1.85-.41-1.4-.9.68-1.45-4.66-1.36-7,1-9.11-.8-2.19,1.48,4,1,2.82,1.26,1,.53-1.81,1.1-3.27.91s-2.5-2-6.28-2.1c.38,0,.41-.11.78-.09-1.4-.42-2.78.49-4.5-.17-1,.92-2.24-.09-2.54,1.1l3.46-.23c-2,.28-3.82,1.65-7,.93a6.33,6.33,0,0,1,1.88-.71c-.94-.36-1.82.21-2.8-.16.3-1.19,4.21-.2,6.33-1.08-1-.51-4,.81-2.92-.47-1.54,1.62-3.72-.26-6.28,1l.17-.71a7.25,7.25,0,0,1-2,.41l1.36-.91c-2.08.76-4-.7-6-.28,4.16,0,.93.86,2.68,1.38-5.12.94-2.94-1.87-8.68-1.53.78-.1,2.92.43,1.7.76a11.66,11.66,0,0,1-3.21-.8c-3.8.14.59.73-1,1.17-1.3-.87-1.86.33-3.53.64v-.73c-4.34-.41-1.14,1.53-5,1l1.63-1-2,.28.41-.82a10.38,10.38,0,0,1-5.06.28c.51.5-.27,1.32-2.19,1.36-1.31-.41.73-.69-2-.55a1.93,1.93,0,0,1,2.46-.39c.12-.24.6-.46.72-.7-1.42-.47-3.54-.06-4.53,0a4.32,4.32,0,0,1,1.07.16c-1.31.34-2.62.72-3.92,1.09-.63-.26-.14-.49.34-.71-.8.1-1.34.44-2.51.54.29-.6.2-1.2,1.86-1.53l-3.75.76c-.26-.25-1.95-.65-1.46-.88-2.1-.29-5.09,1.28-7.86.9a2.25,2.25,0,0,1-1,.33c-2.6,0-4.93-.65-8,.29l-1.79-1c-2.4.34,2.42,1.22-1.58,1.79-2.82.46-1.1-.85-2.11-1.1-1.39.6-3.79,1.75-6.44,1.05A13.87,13.87,0,0,1,447.2,410.26Zm-29.64,2.39c.56-.19,1.67-.75,2.13-.36C419.1,413.17,418.56,412.81,417.56,412.65Zm-44.75,6.26a2.34,2.34,0,0,1,1.84-.06A5,5,0,0,1,372.81,418.91ZM251.38,449.5l0-.05C252.72,449.33,252.25,449.36,251.38,449.5Zm-2.61.52c-.23.18-.18.27,0,.33.12-.23.68-.43,1.34-.59C249.83,449.64,249.47,449.62,248.77,450Zm281.34-34.29-.51-.19C530.77,415.34,530.44,415.53,530.11,415.73Z"/><path class="cls-4" d="M377.77,417.33a.61.61,0,0,1,.29.36C378.27,417.55,378.26,417.41,377.77,417.33Z"/><path class="cls-4" d="M465.67,409.11h.09a.25.25,0,0,0,.08-.14Z"/><path class="cls-4" d="M286.78,433.05a2.73,2.73,0,0,1,1.12.1C287.89,433,287.61,432.89,286.78,433.05Z"/><path class="cls-4" d="M235.85,455.53c.5-.27,1-.49,1.54-.72a4.34,4.34,0,0,1-1.52.26C236,455.21,236.34,455.33,235.85,455.53Z"/><path class="cls-4" d="M220.5,456.39c-.2.17-.49.19-.69.36l.18.29C221,456.66,221.58,456.15,220.5,456.39Z"/><path class="cls-4" d="M233.59,453.8c-.33-.53-1.26,0-2.34.55l.2-.08C231.4,455.2,232.49,454.5,233.59,453.8Z"/><path class="cls-4" d="M231,454.46a6.79,6.79,0,0,1-1,.39C230,455.22,230.41,454.77,231,454.46Z"/><path class="cls-4" d="M245.7,451.44c-.58,0-.09.85-.47.71C244.87,453.08,248.5,450.1,245.7,451.44Z"/><polygon class="cls-4" points="232.02 452.24 232.67 452.8 233.09 452 232.02 452.24"/><path class="cls-4" d="M241.12,449.74l-1.88.39c.06.11-.14.25-.41.4C240,450.19,241.23,449.94,241.12,449.74Z"/><path class="cls-4" d="M238.83,450.53a5,5,0,0,0-1.42.59A10.08,10.08,0,0,0,238.83,450.53Z"/><path class="cls-4" d="M234.39,451.12l.58,0,1.3-.36C235.64,450.85,235,451,234.39,451.12Z"/><path class="cls-4" d="M260.71,443.79l1.94-.78c.13-.3-.46-.3-1.18,0C261.05,443.33,260.33,443.64,260.71,443.79Z"/><path class="cls-4" d="M254.07,443.55a1.93,1.93,0,0,1,1.05.29l-.21-.91Z"/><path class="cls-4" d="M259.85,441.67c.13-.31,2.71-1.55.18-.76C259.9,441.21,258,442,259.85,441.67Z"/><polygon class="cls-4" points="290.51 434.74 290 434.88 290.43 436.35 290.51 434.74"/><path class="cls-4" d="M316.84,425.33c-2.51.11-.4,1-2.69,1-.5.46,1.88,0,1.35.44C316.89,426.13,317.71,426.19,316.84,425.33Z"/><path class="cls-4" d="M315.5,426.78a6,6,0,0,0-.7.37A3,3,0,0,0,315.5,426.78Z"/><polygon class="cls-4" points="626.38 422.44 627.9 422.94 626.96 422.31 626.38 422.44"/><path class="cls-4" d="M629.51,421.66l.25,1,1-.76C630.44,421.91,629.76,421.91,629.51,421.66Z"/><path class="cls-4" d="M413,411l-.1.24c.27.23.64.22,1.39.21Z"/><polygon class="cls-4" points="434.6 410.22 434.23 410.23 434.98 411.06 434.6 410.22"/><path class="cls-4" d="M452.65,408.13c-.74,0-1.6.23-2.34.23C451.91,408.13,452.9,409.22,452.65,408.13Z"/></svg>