<?xml version="1.0" encoding="utf-8"?>
<!-- Generator: Adobe Illustrator 23.0.1, SVG Export Plug-In . SVG Version: 6.00 Build 0)  -->
<svg version="1.1" id="Layer_1" xmlns="http://www.w3.org/2000/svg" xmlns:xlink="http://www.w3.org/1999/xlink" x="0px" y="0px"
	 viewBox="0 0 15 15" style="enable-background:new 0 0 15 15;" xml:space="preserve">
<style type="text/css">
	.st0{fill:#F4F0EE;}
	.st1{fill:#536FAA;}
	.st2{fill:#FBC24E;}
	.st3{fill:#8954A2;}
	.st4{fill:#D7D2D0;}
	.st5{fill:#FFFFFF;}
	.st6{fill:#682A84;}
</style>
<g>
	<g>
		<path class="st0" d="M10.39,12.42H4.61c-0.22,0-0.4-0.18-0.4-0.4V2.98c0-0.22,0.18-0.4,0.4-0.4h5.78c0.22,0,0.4,0.18,0.4,0.4v9.04
			C10.79,12.24,10.61,12.42,10.39,12.42z"/>
	</g>
	<g>
		<path class="st1" d="M7.5,9.42L5.84,8.46L5.08,8.9l2.42,1.4l2.42-1.4L9.16,8.46L7.5,9.42z"/>
	</g>
	<g>
		<path class="st2" d="M7.5,4.71v0.87l1.66,0.96v1.92L9.92,8.9V6.1L7.5,4.71z"/>
	</g>
	<g>
		<path class="st3" d="M5.84,6.54L7.5,5.58V4.71L5.08,6.1V8.9l0.76-0.44V6.54z"/>
	</g>
	<g>
		<path class="st4" d="M10.39,2.58H10c0.22,0,0.4,0.18,0.4,0.4v9.04c0,0.22-0.18,0.4-0.4,0.4h0.4c0.22,0,0.4-0.18,0.4-0.4V2.98
			C10.79,2.76,10.61,2.58,10.39,2.58z"/>
	</g>
	<g>
		<path class="st5" d="M4.61,12.42H5c-0.22,0-0.4-0.18-0.4-0.4V2.98c0-0.22,0.18-0.4,0.4-0.4h-0.4c-0.22,0-0.4,0.18-0.4,0.4v9.04
			C4.21,12.24,4.39,12.42,4.61,12.42z"/>
	</g>
	<g>
		<path class="st1" d="M8.76,3.52H6.24c-0.16,0-0.3-0.1-0.37-0.24L5.58,2.58h3.84L9.13,3.28C9.07,3.42,8.92,3.52,8.76,3.52z"/>
	</g>
	<g>
		<path class="st6" d="M10.39,12.5H4.61c-0.26,0-0.48-0.21-0.48-0.48V2.98c0-0.26,0.21-0.48,0.48-0.48h5.78
			c0.26,0,0.48,0.21,0.48,0.48v9.04C10.87,12.28,10.65,12.5,10.39,12.5z M4.61,2.66c-0.17,0-0.32,0.14-0.32,0.32v9.04
			c0,0.17,0.14,0.32,0.32,0.32h5.78c0.17,0,0.32-0.14,0.32-0.32V2.98c0-0.17-0.14-0.32-0.32-0.32H4.61z"/>
	</g>
	<g>
		<path class="st6" d="M4.61,4.1c-0.04,0-0.08-0.04-0.08-0.08V3.55c0-0.04,0.04-0.08,0.08-0.08c0.04,0,0.08,0.04,0.08,0.08v0.48
			C4.69,4.07,4.65,4.1,4.61,4.1z"/>
	</g>
	<g>
		<path class="st6" d="M8.76,3.6H6.24c-0.19,0-0.36-0.11-0.44-0.29L5.5,2.61C5.49,2.59,5.5,2.56,5.51,2.54
			C5.53,2.52,5.55,2.5,5.58,2.5h3.84c0.03,0,0.05,0.01,0.07,0.04C9.5,2.56,9.51,2.59,9.5,2.61L9.2,3.31C9.13,3.48,8.95,3.6,8.76,3.6
			L8.76,3.6z M5.7,2.66l0.25,0.58c0.05,0.12,0.16,0.19,0.29,0.19h2.53c0.13,0,0.24-0.08,0.29-0.19L9.3,2.66H5.7z"/>
	</g>
	<g>
		<path class="st6" d="M7.5,10.37c-0.01,0-0.03,0-0.04-0.01l-2.42-1.4C5.02,8.95,5,8.92,5,8.9s0.02-0.05,0.04-0.07L5.8,8.39
			c0.02-0.01,0.05-0.01,0.08,0L7.5,9.33l1.62-0.94c0.02-0.01,0.05-0.01,0.08,0l0.76,0.44C9.98,8.84,10,8.87,10,8.9
			S9.98,8.95,9.96,8.97l-2.42,1.4C7.53,10.37,7.51,10.37,7.5,10.37z M5.24,8.9L7.5,10.2L9.76,8.9l-0.6-0.35L7.54,9.49
			c-0.02,0.01-0.05,0.01-0.08,0L5.84,8.55L5.24,8.9z"/>
	</g>
	<g>
		<path class="st6" d="M9.92,8.98c-0.01,0-0.03,0-0.04-0.01L9.12,8.53C9.1,8.51,9.08,8.49,9.08,8.46V6.59L7.46,5.65
			C7.44,5.64,7.42,5.61,7.42,5.58V4.71c0-0.03,0.02-0.05,0.04-0.07s0.05-0.01,0.08,0l2.42,1.4C9.98,6.05,10,6.08,10,6.1V8.9
			c0,0.03-0.02,0.05-0.04,0.07C9.95,8.97,9.93,8.98,9.92,8.98z M9.24,8.41l0.6,0.35V6.15L7.58,4.84v0.69L9.2,6.47
			c0.02,0.01,0.04,0.04,0.04,0.07V8.41z"/>
	</g>
	<g>
		<path class="st6" d="M5.08,8.98c-0.01,0-0.03,0-0.04-0.01C5.02,8.95,5,8.93,5,8.9V6.1c0-0.03,0.02-0.05,0.04-0.07l2.42-1.4
			c0.02-0.01,0.05-0.01,0.08,0s0.04,0.04,0.04,0.07v0.87c0,0.03-0.02,0.05-0.04,0.07L5.92,6.59v1.87c0,0.03-0.02,0.05-0.04,0.07
			L5.12,8.97C5.11,8.97,5.09,8.98,5.08,8.98z M5.16,6.15v2.61l0.6-0.35V6.54c0-0.03,0.02-0.05,0.04-0.07l1.62-0.94V4.84L5.16,6.15z
			 M5.84,8.46L5.84,8.46L5.84,8.46z"/>
	</g>
	<g>
		<path class="st6" d="M6.78,8.19c-0.32,0-0.57-0.26-0.57-0.57v-0.7c0-0.06,0.05-0.11,0.11-0.11c0.06,0,0.11,0.05,0.11,0.11v0.7
			c0,0.19,0.16,0.35,0.35,0.35c0.19,0,0.35-0.16,0.35-0.35v-0.7c0-0.06,0.05-0.11,0.11-0.11c0.06,0,0.11,0.05,0.11,0.11v0.7
			C7.34,7.93,7.09,8.19,6.78,8.19L6.78,8.19z"/>
	</g>
	<g>
		<path class="st6" d="M8.77,7L8.4,7.51l0.37,0.51C8.8,8.06,8.8,8.13,8.75,8.17C8.73,8.18,8.71,8.19,8.68,8.19
			c-0.04,0-0.07-0.02-0.09-0.05L8.27,7.69L7.93,8.14C7.91,8.17,7.88,8.19,7.85,8.19c-0.02,0-0.05-0.01-0.06-0.02
			c-0.05-0.03-0.06-0.1-0.03-0.15l0.37-0.51L7.76,7C7.73,6.95,7.74,6.88,7.78,6.85C7.83,6.81,7.9,6.82,7.93,6.87l0.33,0.45L8.6,6.87
			c0.04-0.05,0.1-0.06,0.15-0.02C8.8,6.88,8.8,6.95,8.77,7L8.77,7z"/>
	</g>
</g>
</svg>
